<?xml version="1.0" encoding="UTF-8" standalone="no"?>
<!-- Created with Inkscape (http://www.inkscape.org/) -->

<svg
   xmlns:dc="http://purl.org/dc/elements/1.1/"
   xmlns:cc="http://creativecommons.org/ns#"
   xmlns:rdf="http://www.w3.org/1999/02/22-rdf-syntax-ns#"
   xmlns:svg="http://www.w3.org/2000/svg"
   xmlns="http://www.w3.org/2000/svg"
   xmlns:sodipodi="http://sodipodi.sourceforge.net/DTD/sodipodi-0.dtd"
   xmlns:inkscape="http://www.inkscape.org/namespaces/inkscape"
   width="744.09448"
   height="1052.3622"
   id="svg2"
   version="1.1"
   inkscape:version="0.91pre2+osxmenu r12825"
   viewBox="0 0 744.09448 1052.3622"
   sodipodi:docname="sadLogo.svg">
  <defs
     id="defs4">
    <clipPath
       clipPathUnits="userSpaceOnUse"
       id="clipPath4935">
      <rect
         style="opacity:1;fill:#000000;fill-opacity:1;stroke:#000000;stroke-opacity:1"
         id="rect4937"
         width="77.619308"
         height="36.692764"
         x="-32.106167"
         y="433.17181" />
    </clipPath>
  </defs>
  <sodipodi:namedview
     id="base"
     pagecolor="#ffffff"
     bordercolor="#666666"
     borderopacity="1.0"
     inkscape:pageopacity="0.0"
     inkscape:pageshadow="2"
     inkscape:zoom="2.8343464"
     inkscape:cx="103.29762"
     inkscape:cy="624.54491"
     inkscape:document-units="px"
     inkscape:current-layer="layer1"
     showgrid="false"
     inkscape:window-width="1280"
     inkscape:window-height="716"
     inkscape:window-x="0"
     inkscape:window-y="23"
     inkscape:window-maximized="0" />
  <metadata
     id="metadata7">
    <rdf:RDF>
      <cc:Work
         rdf:about="">
        <dc:format>image/svg+xml</dc:format>
        <dc:type
           rdf:resource="http://purl.org/dc/dcmitype/StillImage" />
        <dc:title />
      </cc:Work>
    </rdf:RDF>
  </metadata>
  <g
     inkscape:label="Layer 1"
     inkscape:groupmode="layer"
     id="layer1">
    <rect
       style="opacity:1;fill:#ffffff;fill-opacity:1;stroke:#000000;stroke-opacity:1"
       id="rect4328"
       width="256"
       height="256"
       x="123.42855"
       y="315.79077"
       ry="0"
       inkscape:export-xdpi="358.60001"
       inkscape:export-ydpi="358.60001" />
    <path
       style="fill:#000000"
       d="m 251.88877,544.80867 c -14.27155,-14.29015 -26.1019,-26.44295 -26.28966,-27.00623 -0.18776,-0.56327 -0.82247,-0.7268 -1.41048,-0.36339 -0.60142,0.3717 -0.78006,0.19306 -0.40836,-0.40836 0.36341,-0.58801 -0.8283,-1.98938 -2.64824,-3.11416 -5.13336,-3.17259 -14.95484,-13.9171 -20.53465,-22.46452 -14.05331,-21.5275 -24.43945,-51.19153 -29.6421,-84.66124 -1.84232,-11.85198 -3.67621,-38.7124 -2.85697,-41.84515 0.59962,-2.29297 0.76803,-2.3231 8.72083,-1.56033 4.46018,0.42779 9.22809,0.73502 10.59537,0.68273 1.36727,-0.0523 3.16759,0.26975 4.00071,0.71562 0.83311,0.44587 6.46444,1.14418 12.51404,1.55181 17.03854,1.14806 19.05861,1.29136 33.98121,2.41049 9.47696,0.71074 18.49853,0.72975 28,0.059 7.70994,-0.54427 17.79235,-1.22431 22.40535,-1.5112 4.61301,-0.28688 12.03801,-1.0004 16.5,-1.5856 9.19815,-1.20634 19.23635,-2.12726 25.07177,-2.3001 3.20045,-0.0948 4.18225,0.32607 5.12401,2.19651 0.64073,1.27257 2.34666,3.54719 3.79096,5.05471 3.53321,3.68789 3.36348,5.21225 -0.20021,1.79802 l -2.8262,-2.70767 -1.24596,14.27058 c -6.5448,74.96087 -34.9147,129.9864 -72.10164,139.84647 -10.02556,2.65827 -24.4729,0.80204 -32.83615,-4.21886 -2.01512,-1.20978 8.03615,9.60493 22.33615,24.03268 14.3,14.42776 26.1875,26.42984 26.41667,26.67129 0.22916,0.24145 0.20858,0.439 -0.0457,0.439 -0.25432,0 -12.13914,-11.69194 -26.4107,-25.9821 z m 10.00482,-23.55081 c 25.1704,-6.55606 47.32101,-36.34313 60.1547,-80.89317 6.1946,-21.50353 9.14566,-39.37709 10.06139,-60.93821 l 0.6313,-14.86429 -3.90622,0.59586 c -23.00633,3.50944 -54.62332,5.92018 -77.40621,5.9021 -20.06731,-0.0159 -52.87465,-2.41325 -72,-5.26124 -3.575,-0.53236 -7.13029,-0.97697 -7.90065,-0.98803 -1.16725,-0.0168 -1.29714,2.52103 -0.77951,15.22989 2.26471,55.60327 23.35147,110.24212 50.63897,131.21294 13.78227,10.59185 26.34127,13.69365 40.50623,10.00415 z m -20.47151,-28.35488 c -7.88964,-2.54644 -14.16539,-7.15383 -19.10351,-14.025 -5.65546,-7.86932 -4.92353,-10.6361 1.51559,-5.72909 15.73241,11.98911 37.06563,12.4179 53.55326,1.0764 4.65237,-3.20027 7.04113,-4.18231 7.04113,-2.89468 0,1.82036 -4.45003,8.68272 -8.00777,12.34873 -6.35074,6.544 -13.65951,9.53132 -23.99223,9.80636 -4.675,0.12444 -9.62791,-0.13778 -11.00647,-0.58272 z m 23.12648,-4.28574 c 5.44165,-2.51438 13.87999,-9.15815 13.87999,-10.92813 0,-0.47792 -1.4625,0.0319 -3.25,1.133 -12.39909,7.63763 -33.19043,7.92369 -46.22944,0.63604 -5.05669,-2.82623 -4.99012,-1.24756 0.14338,3.40048 10.02657,9.07838 23.52627,11.27094 35.45607,5.75861 z m -56.37204,-56.25322 c -5.70621,-2.03635 -10.46256,-6.14667 -13.75424,-11.88608 -2.88471,-5.02981 -3.9038,-9.68717 -2.11968,-9.68717 0.48072,0 2.88954,1.12648 5.35293,2.5033 7.81897,4.37011 18.88162,6.68092 32.02302,6.68911 6.4625,0.004 11.75,0.30985 11.75,0.67961 0,1.9984 -6.68359,8.28973 -11.19477,10.53775 -5.95646,2.96823 -15.57788,3.47574 -22.05726,1.16348 z m 20.82442,-3.365 c 2.16019,-1.10749 4.911,-3.06991 6.11291,-4.36093 l 2.18531,-2.34732 -10.68531,-0.10925 c -10.93115,-0.11177 -19.05039,-1.6894 -27.63717,-5.37012 -2.50147,-1.07226 -4.54813,-1.55053 -4.54813,-1.06283 0,1.40882 6.24804,9.16974 9.05782,11.25106 6.87332,5.09134 17.81173,5.9485 25.51457,1.99939 z m 44.42761,2.71321 c -5.45595,-2.46683 -11,-7.61732 -11,-10.21912 0,-1.75455 0.53992,-1.8511 6.82319,-1.2201 8.82768,0.88653 23.07892,-1.52446 32.56173,-5.50872 8.03855,-3.37743 9.61508,-3.61251 9.61508,-1.43368 0,2.20311 -3.43802,8.63884 -6.66134,12.46953 -6.40239,7.6088 -21.34943,10.42859 -31.33866,5.91209 z m 18.11763,-0.93749 c 1.9897,-0.55269 5.12072,-2.01781 6.95783,-3.25584 3.31689,-2.23525 9.92454,-10.07181 9.92454,-11.77033 0,-0.4877 -2.04666,-0.009 -4.54813,1.06283 -8.68205,3.72156 -16.70662,5.28897 -27.57062,5.38526 -6.63168,0.0588 -10.47442,0.46959 -10.23434,1.09411 0.59902,1.55828 6.88837,5.57072 11.07068,7.0628 4.56492,1.62858 9.53043,1.77381 14.40004,0.42117 z m 68.38237,-36.98397 c -9.84846,-9.85987 -17.68584,-18.14749 -17.41641,-18.41693 0.26944,-0.26944 8.55057,7.57443 18.40252,17.43082 9.85195,9.85638 17.68933,18.144 17.41641,18.41693 -0.27293,0.27292 -8.55406,-7.57095 -18.40252,-17.43082 z"
       id="path4326"
       inkscape:connector-curvature="0" />
    <rect
       style="opacity:1;fill:#ffffff;fill-opacity:1;stroke:none;stroke-opacity:1"
       id="rect4939"
       width="80.089012"
       height="32.106167"
       x="211.68901"
       y="464.57236" />
    <path
       style="fill:#000000"
       d="m 8.7602886,516.05533 c -14.27155,-14.29015 -26.1018996,-26.44295 -26.2896596,-27.00623 -0.18776,-0.56327 -0.82247,-0.7268 -1.41048,-0.36339 -0.60142,0.3717 -0.78006,0.19306 -0.40836,-0.40836 0.36341,-0.58801 -0.8283,-1.98938 -2.648241,-3.11416 -5.13336,-3.17259 -14.95484,-13.9171 -20.534649,-22.46452 -14.053306,-21.5275 -24.439446,-51.19153 -29.642096,-84.66124 -1.84232,-11.85198 -3.676205,-38.7124 -2.856965,-41.84515 0.599615,-2.29297 0.768025,-2.3231 8.720825,-1.56033 4.46018,0.42779 9.22809,0.73502 10.595366,0.68273 1.36727,-0.0523 3.16759,0.26975 4.00071,0.71562 0.83311,0.44587 6.46444,1.14418 12.514039,1.55181 17.03854,1.14806 19.058611,1.29136 33.9812106,2.41049 9.47696,0.71074 18.4985304,0.72975 28.0000004,0.059 7.70994,-0.54427 17.79235,-1.22431 22.40535,-1.5112 4.61301,-0.28688 12.03801,-1.0004 16.5,-1.5856 9.198154,-1.20634 19.236354,-2.12726 25.071774,-2.3001 3.20045,-0.0948 4.18225,0.32607 5.12401,2.19651 0.64073,1.27257 2.34666,3.54719 3.79096,5.05471 3.53321,3.68789 3.36348,5.21225 -0.20021,1.79802 l -2.8262,-2.70767 -1.24596,14.27058 c -6.5448,74.96087 -34.914704,129.9864 -72.101644,139.84647 -10.0255604,2.65827 -24.4729004,0.80204 -32.83615,-4.21886 -2.01512,-1.20978 8.0361496,9.60493 22.3361496,24.03268 14.3000004,14.42776 26.1875004,26.42984 26.4166704,26.67129 0.22916,0.24145 0.20858,0.439 -0.0457,0.439 -0.25432,0 -12.13914,-11.69194 -26.4107004,-25.9821 z M 18.765109,492.50452 c 25.1704,-6.55606 47.32101,-36.34313 60.154704,-80.89317 6.1946,-21.50353 9.14566,-39.37709 10.06139,-60.93821 l 0.6313,-14.86429 -3.90622,0.59586 c -23.006334,3.50944 -54.623324,5.92018 -77.4062144,5.9021 -20.0673096,-0.0159 -52.8746496,-2.41325 -71.9999956,-5.26124 -3.575,-0.53236 -7.13029,-0.97697 -7.90065,-0.98803 -1.16725,-0.0168 -1.29714,2.52103 -0.77951,15.22989 2.26471,55.60327 23.351466,110.24212 50.638965,131.21294 13.7822706,10.59185 26.3412706,13.69365 40.506231,10.00415 z M -1.7064014,464.14964 c -7.88964,-2.54644 -14.1653896,-7.15383 -19.1035096,-14.025 -5.655461,-7.86932 -4.923531,-10.6361 1.51559,-5.72909 15.7324096,11.98911 37.06563,12.4179 53.55326,1.0764 4.65237,-3.20027 7.04113,-4.18231 7.04113,-2.89468 0,1.82036 -4.45003,8.68272 -8.00777,12.34873 -6.35074,6.544 -13.65951,9.53132 -23.9922304,9.80636 -4.675,0.12444 -9.62790995,-0.13778 -11.00647,-0.58272 z M 21.420079,459.8639 c 5.44165,-2.51438 13.87999,-9.15815 13.87999,-10.92813 0,-0.47792 -1.4625,0.0319 -3.25,1.133 -12.39909,7.63763 -33.1904304,7.92369 -46.22944,0.63604 -5.05669,-2.82623 -4.99012,-1.24756 0.14338,3.40048 10.0265696,9.07838 23.5262696,11.27094 35.45607,5.75861 z m -56.372041,-56.25322 c -5.70621,-2.03635 -10.462559,-6.14667 -13.754239,-11.88608 -2.88471,-5.02981 -3.9038,-9.68717 -2.11968,-9.68717 0.48072,0 2.88954,1.12648 5.35293,2.5033 7.818969,4.37011 18.881619,6.68092 32.02302,6.68911 6.4624996,0.004 11.7499996,0.30985 11.7499996,0.67961 0,1.9984 -6.68359,8.28973 -11.1947696,10.53775 -5.95646,2.96823 -15.577881,3.47574 -22.057261,1.16348 z m 20.824421,-3.365 c 2.16019,-1.10749 4.9109996,-3.06991 6.1129096,-4.36093 l 2.18531,-2.34732 -10.6853096,-0.10925 c -10.931151,-0.11177 -19.050391,-1.6894 -27.63717,-5.37012 -2.50147,-1.07226 -4.54813,-1.55053 -4.54813,-1.06283 0,1.40882 6.24804,9.16974 9.057819,11.25106 6.87332,5.09134 17.81173,5.9485 25.514571,1.99939 z m 44.42761,2.71321 c -5.45595,-2.46683 -11,-7.61732 -11,-10.21912 0,-1.75455 0.53992,-1.8511 6.82319,-1.2201 8.82768,0.88653 23.07892,-1.52446 32.56173,-5.50872 8.03855,-3.37743 9.61508,-3.61251 9.61508,-1.43368 0,2.20311 -3.43802,8.63884 -6.66134,12.46953 -6.40239,7.6088 -21.34943,10.42859 -31.33866,5.91209 z m 18.11763,-0.93749 c 1.9897,-0.55269 5.12072,-2.01781 6.95783,-3.25584 3.31689,-2.23525 9.92454,-10.07181 9.92454,-11.77033 0,-0.4877 -2.04666,-0.009 -4.54813,1.06283 -8.68205,3.72156 -16.70662,5.28897 -27.57062,5.38526 -6.63168,0.0588 -10.47442,0.46959 -10.23434,1.09411 0.59902,1.55828 6.88837,5.57072 11.07068,7.0628 4.56492,1.62858 9.53043,1.77381 14.40004,0.42117 z m 68.382371,-36.98397 c -9.84846,-9.85987 -17.685837,-18.14749 -17.416407,-18.41693 0.26944,-0.26944 8.550567,7.57443 18.402517,17.43082 9.85195,9.85638 17.68933,18.144 17.41641,18.41693 -0.27293,0.27292 -8.55406,-7.57095 -18.40252,-17.43082 z"
       id="path4326-3"
       inkscape:connector-curvature="0"
       clip-path="url(#clipPath4935)"
       transform="matrix(-1,0,0,-1,71.974271,910.44979)"
       inkscape:export-xdpi="358.60001"
       inkscape:export-ydpi="358.60001" />
  </g>
  <g
     inkscape:groupmode="layer"
     id="layer2"
     inkscape:label="shadow"
     sodipodi:insensitive="true">
    <path
       style="fill:none;fill-rule:evenodd;stroke:#000000;stroke-width:1px;stroke-linecap:butt;stroke-linejoin:miter;stroke-opacity:1"
       d="m 379.62897,412.17932 -46.74799,-46.9244"
       id="path4328"
       inkscape:connector-curvature="0" />
    <path
       style="fill:none;fill-rule:evenodd;stroke:#000000;stroke-width:1px;stroke-linecap:butt;stroke-linejoin:miter;stroke-opacity:1"
       d="M 379.62897,412.53214 336.76194,368.78307"
       id="path4330"
       inkscape:connector-curvature="0" />
    <path
       style="fill:#000000;fill-rule:evenodd;stroke:#000000;stroke-width:1px;stroke-linecap:butt;stroke-linejoin:miter;stroke-opacity:1"
       d="m 379.80537,412.00291 -46.04236,-44.6311 c 0.742,64.53922 -32.70752,181.15015 -105.8445,151.53406 l 51.15817,52.74584 c 77.61555,0.27796 89.93437,0.0387 100.02306,0.17641 z"
       id="path4334"
       inkscape:connector-curvature="0"
       sodipodi:nodetypes="cccccc" />
  </g>
</svg>
