<svg width="41" height="41" viewBox="0 0 41 41" fill="none" xmlns="http://www.w3.org/2000/svg">
<path d="M20.5001 25.9667C23.5193 25.9667 25.9668 23.5191 25.9668 20.5C25.9668 17.4808 23.5193 15.0333 20.5001 15.0333C17.481 15.0333 15.0334 17.4808 15.0334 20.5C15.0334 23.5191 17.481 25.9667 20.5001 25.9667Z" fill="white"/>
<path d="M15.3751 3.41663L12.2488 6.83329H6.83342C4.95425 6.83329 3.41675 8.37079 3.41675 10.25V30.75C3.41675 32.6291 4.95425 34.1666 6.83342 34.1666H34.1668C36.0459 34.1666 37.5834 32.6291 37.5834 30.75V10.25C37.5834 8.37079 36.0459 6.83329 34.1668 6.83329H28.7513L25.6251 3.41663H15.3751ZM20.5001 29.0416C15.7851 29.0416 11.9584 25.215 11.9584 20.5C11.9584 15.785 15.7851 11.9583 20.5001 11.9583C25.2151 11.9583 29.0418 15.785 29.0418 20.5C29.0418 25.215 25.2151 29.0416 20.5001 29.0416Z" fill="white"/>
</svg>

