<svg width="41" height="41" viewBox="0 0 41 41" fill="none" xmlns="http://www.w3.org/2000/svg">
<path d="M25.6251 15.375H15.3751C14.4355 15.375 13.6667 16.1437 13.6667 17.0833V37.5833C13.6667 38.5229 14.4355 39.2917 15.3751 39.2917H25.6251C26.5646 39.2917 27.3334 38.5229 27.3334 37.5833V17.0833C27.3334 16.1437 26.5646 15.375 25.6251 15.375ZM20.5001 25.625C18.6209 25.625 17.0834 24.0875 17.0834 22.2083C17.0834 20.3292 18.6209 18.7917 20.5001 18.7917C22.3792 18.7917 23.9167 20.3292 23.9167 22.2083C23.9167 24.0875 22.3792 25.625 20.5001 25.625ZM12.0438 10.3354L14.4526 12.7442C16.0071 11.2067 18.1426 10.25 20.5001 10.25C22.8576 10.25 24.993 11.2067 26.5476 12.7442L28.9563 10.3354C26.7867 8.16583 23.7971 6.83333 20.5001 6.83333C17.203 6.83333 14.2134 8.16583 12.0438 10.3354ZM20.5001 0C15.3067 0 10.6088 2.10125 7.20923 5.50083L9.61798 7.90958C12.4026 5.14208 16.2463 3.41667 20.5001 3.41667C24.7538 3.41667 28.5976 5.14208 31.3651 7.92667L33.7738 5.51792C30.3913 2.10125 25.6934 0 20.5001 0Z" fill="white"/>
</svg>

